<svg xmlns="http://www.w3.org/2000/svg" xmlns:xlink="http://www.w3.org/1999/xlink" width="643" height="174" viewBox="0 0 643 174">
  <defs>
    <clipPath id="clip-full_logo">
      <rect width="643" height="174"/>
    </clipPath>
  </defs>
  <g id="full_logo" clip-path="url(#clip-full_logo)">
    <g id="Group_3" data-name="Group 3" transform="translate(734.631 -893.935)">
      <g id="Group_1" data-name="Group 1" transform="translate(-722.529 909.982)">
        <path id="Path_3" data-name="Path 3" d="M45.572-26.315a21.289,21.289,0,0,1,9.963,1.992,18.184,18.184,0,0,1,5.6,4.243q4.926,5.715,4.926,14.491,0,12.124-8.844,24.421-10.243,12.7-23.06,12.7a18.281,18.281,0,0,1-10.243-2.685,18.318,18.318,0,0,1-6.269-6.812A21.753,21.753,0,0,1,15.123,13.4,116.9,116.9,0,0,0,8.966,27.953q-.056.231-.112.4l-8.34,34a5.359,5.359,0,0,1-1.875,2.915,4.923,4.923,0,0,1-3.106,1.068A4.529,4.529,0,0,1-5.7,66.171a4.98,4.98,0,0,1-3.162-2.4,5.4,5.4,0,0,1-.532-4.012l20.15-82.1a5.11,5.11,0,0,1,2.323-3.262,4.956,4.956,0,0,1,3.89-.548,4.966,4.966,0,0,1,3.106,2.4,5.591,5.591,0,0,1,.588,4.012l-2.127,8.66A51.384,51.384,0,0,1,30.683-21.986,27.086,27.086,0,0,1,45.572-26.315ZM34.154,21.025A16.165,16.165,0,0,0,44.816,16.81a32.219,32.219,0,0,0,8-10.363A26.968,26.968,0,0,0,55.871-5.59a17.2,17.2,0,0,0-.448-3.695,8.605,8.605,0,0,0-1.847-3.695q-2.519-2.829-8-2.829A18.342,18.342,0,0,0,35.133-12.46a42.65,42.65,0,0,0-9.207,8.6A79.593,79.593,0,0,0,18.313,7.4a4.106,4.106,0,0,1,1.679-.346h.168A4.823,4.823,0,0,1,23.687,8.5a5.313,5.313,0,0,1,1.567,3.637,13.076,13.076,0,0,0,.588,3.2,8.588,8.588,0,0,0,2.463,3.9Q30.18,21.025,34.154,21.025ZM93.428,8.382q-7.724.4-10.859-2.136a22.49,22.49,0,0,0-1.623,7.794q0,3.348,1.623,4.907,2.127,2.078,7.108,2.078a23.72,23.72,0,0,0,9.879-1.963,31.653,31.653,0,0,0,7.36-4.5,33.7,33.7,0,0,0,4.59-4.5A24.222,24.222,0,0,0,113.13,7.92,5.149,5.149,0,0,1,116.376,5.7a4.761,4.761,0,0,1,3.806.779,5.354,5.354,0,0,1,2.183,3.377,5.533,5.533,0,0,1-.728,3.955q-.224.4-2.379,3.089a44.815,44.815,0,0,1-6.213,6.062,42.128,42.128,0,0,1-9.907,5.975,32.87,32.87,0,0,1-13.461,2.6q-9.123,0-14.161-4.907A17.219,17.219,0,0,1,70.7,14.039q0-12.124,10.8-26.21Q93.652-26.315,105.8-26.315q11.362,0,15.616,6.87a10.538,10.538,0,0,1,1.315,4.59q.308,3.031-1.875,7.245A30.446,30.446,0,0,1,108.708,3.532,41.107,41.107,0,0,1,93.428,8.382ZM89.342-5.359q-.9,1.1-1.679,2.252l.5.52a4.523,4.523,0,0,0,1.791.462A16.155,16.155,0,0,0,94.6-2.414,31.949,31.949,0,0,0,105.07-6.456a19.7,19.7,0,0,0,6.941-6.408,3.251,3.251,0,0,0,.5-1.386,5.511,5.511,0,0,0-1.847-.953,14.449,14.449,0,0,0-4.87-.606Q98.3-15.808,89.342-5.359ZM206.211-54.72v.173l-20.15,82.153a5.348,5.348,0,0,1-1.875,2.858,4.923,4.923,0,0,1-3.106,1.068,6.667,6.667,0,0,1-1.231-.115,5.22,5.22,0,0,1-3.162-2.425,5.308,5.308,0,0,1-.532-3.984L183.823-6.34Q164.568,28.01,148.56,31.417a26.448,26.448,0,0,1-5.653.693,14.569,14.569,0,0,1-7.472-1.674,13.512,13.512,0,0,1-4.282-3.753Q123.821,16.118,132.5-3.049a56.14,56.14,0,0,1,6.689-10.825,40.8,40.8,0,0,1,9.431-8.862,20.155,20.155,0,0,1,11.474-3.579,20.391,20.391,0,0,1,16.568,7.621q.672.866,1.231,1.732.616-1.155,1.231-2.367,7.724-15.068,12.454-26.384t4.9-12.066a.05.05,0,0,0,.056-.058v-.058l.056-.058.112-.231a.168.168,0,0,1,.056-.115v-.058l.056-.058.112-.231a.672.672,0,0,0,.112-.173.9.9,0,0,0,.168-.231.674.674,0,0,1,.112-.173.05.05,0,0,0,.056-.058l.168-.173.168-.173.056-.058.112-.115a.372.372,0,0,0,.168-.173h.056a.372.372,0,0,0,.168-.173.651.651,0,0,0,.168-.115h.056l.224-.115a.651.651,0,0,1,.168-.115,2.134,2.134,0,0,1,.28-.115l.112-.115h.056a2.133,2.133,0,0,1,.28-.115h.112l.056-.058a.607.607,0,0,0,.28-.058.421.421,0,0,0,.168-.058h.056a.9.9,0,0,0,.28-.058h.224a.9.9,0,0,0,.28-.058h.28a.224.224,0,0,1,.168.058h.336a.224.224,0,0,1,.168.058.607.607,0,0,1,.28.058h.224l.224.115h.112a.484.484,0,0,0,.224.058v.058h.112l.056.058h.056l.224.115a.224.224,0,0,0,.168.058.05.05,0,0,0,.056.058.88.88,0,0,1,.224.173.421.421,0,0,1,.168.058v.058h.056a.372.372,0,0,1,.168.173.65.65,0,0,1,.168.115.05.05,0,0,1,.056.058.651.651,0,0,1,.168.115.9.9,0,0,1,.168.231h.056a.674.674,0,0,0,.112.173l.168.173v.058h.056a.24.24,0,0,1,.056.173.9.9,0,0,1,.168.231.674.674,0,0,1,.112.173l.112.231.112.231a.673.673,0,0,0,.112.173v.058l.112.231a.24.24,0,0,0,.056.173v.058a.977.977,0,0,0,.056.289.453.453,0,0,0,.056.173v.058a.525.525,0,0,0,.056.231v1.386a.24.24,0,0,1-.056.173A.66.66,0,0,1,206.211-54.72ZM170.389-3.8a10.293,10.293,0,0,0-1.679-8.313q-2.967-3.695-8.62-3.695-4.534,0-9.6,4.792a42.39,42.39,0,0,0-8.816,12.586,38.05,38.05,0,0,0-3.5,11.662q-.476,4.965.979,6.928a4.1,4.1,0,0,0,3.19,1.386,15.6,15.6,0,0,0,4.03-.4q3.022-.346,9.011-5.542T170.389-3.8Zm27.146,35.159a4.98,4.98,0,0,1-3.162-2.4,5.4,5.4,0,0,1-.532-4.012l11.586-47.34a5.335,5.335,0,0,1,2.351-3.2,5.055,5.055,0,0,1,3.862-.606,5.22,5.22,0,0,1,3.162,2.425,5.308,5.308,0,0,1,.532,3.984l-11.586,47.34a5.359,5.359,0,0,1-1.875,2.915,4.923,4.923,0,0,1-3.106,1.068A4.529,4.529,0,0,1,197.536,31.359Zm15.616-63.736a4.966,4.966,0,0,1-3.106-2.4,5.591,5.591,0,0,1-.588-4.012l.9-3.522a5.089,5.089,0,0,1,2.323-3.2,5.139,5.139,0,0,1,3.89-.606,5.211,5.211,0,0,1,3.106,2.425,5.5,5.5,0,0,1,.588,3.984l-.9,3.522a5.029,5.029,0,0,1-1.847,2.915,4.96,4.96,0,0,1-3.078,1.068A5.154,5.154,0,0,1,213.152-32.377Zm73.6,11.142v.808a.525.525,0,0,0-.056.231.66.66,0,0,1-.056.289v.173L275,27.606a5.348,5.348,0,0,1-1.875,2.858,4.923,4.923,0,0,1-3.106,1.068,6.667,6.667,0,0,1-1.231-.115,5.324,5.324,0,0,1-3.134-2.425,5.23,5.23,0,0,1-.56-3.984l4.254-17.32q-18.695,23.843-34.871,23.843-9.123,0-14.161-4.907A17.218,17.218,0,0,1,215.5,14.039q0-12.124,10.8-26.21Q238.451-26.315,250.6-26.315q17.687,0,19.366,15.126,3.358-5.311,5.233-8.718t1.931-3.579l.056-.058V-23.6a2.842,2.842,0,0,0,.168-.289.674.674,0,0,1,.112-.173,1.883,1.883,0,0,0,.224-.289l.112-.115a.9.9,0,0,0,.168-.231l.168-.173a.88.88,0,0,1,.224-.173.372.372,0,0,1,.168-.173.88.88,0,0,0,.224-.173.65.65,0,0,1,.168-.115l.224-.115.224-.115.224-.115a.651.651,0,0,0,.168-.115l.336-.115h.112l.336-.115h.168a1.027,1.027,0,0,1,.336-.058.224.224,0,0,1,.168-.058H282a.9.9,0,0,1,.28.058h.224a.607.607,0,0,0,.28.058h.056l.056.058H283l.224.115a.607.607,0,0,1,.28.058.224.224,0,0,0,.168.058v.058l.336.115h.056v.058h.056l.336.231a.159.159,0,0,1,.112.058,1.845,1.845,0,0,1,.28.231.65.65,0,0,0,.168.115.9.9,0,0,1,.168.231.372.372,0,0,1,.168.173.372.372,0,0,1,.168.173l.168.173a.9.9,0,0,0,.168.231l.112.231a.674.674,0,0,1,.112.173l.112.231.112.231.112.231a2.286,2.286,0,0,1,.112.289.453.453,0,0,0,.056.173.659.659,0,0,0,.056.289.525.525,0,0,0,.056.231.975.975,0,0,0,.056.289v.462ZM262.575-.509q1.343-1.79,2.631-3.579a4.908,4.908,0,0,1-3.666-1.357,5.427,5.427,0,0,1-1.651-3.666,10.556,10.556,0,0,0-.5-3.32,4.3,4.3,0,0,0-2.407-2.454q-1.9-.924-6.381-.924-7.5,0-16.456,10.45-8.4,11.142-8.4,19.4a8.38,8.38,0,0,0,1.483,4.792q1.483,2.194,7.248,2.194Q245.951,21.025,262.575-.509Z" transform="translate(332.04 75.561)" fill="#383838"/>
        <path id="Path_4" data-name="Path 4" d="M121.622-65.569v.808a.525.525,0,0,1-.056.231.976.976,0,0,1-.056.289v.173l-.056.058L110.764-20.365l2.967-.462a4.951,4.951,0,0,1,3.806.953,5.326,5.326,0,0,1,2.015,3.435,5.353,5.353,0,0,1-.924,3.926,5.114,5.114,0,0,1-3.33,2.078l-7.276,1.212L97.61,32.46a5.083,5.083,0,0,1-1.819,2.915,4.923,4.923,0,0,1-3.106,1.068,4.529,4.529,0,0,1-1.231-.173,4.979,4.979,0,0,1-3.162-2.4A5.468,5.468,0,0,1,87.7,29.92L97.051-7.49,51.545-.158,8.447,38.407a5.24,5.24,0,0,1-3.358,1.27,5.279,5.279,0,0,1-3.862-1.79,5.489,5.489,0,0,1-1.2-3.839A5.335,5.335,0,0,1,1.73,30.44L32.515,2.9,12.645,6.077a5.369,5.369,0,0,1-.784.058A4.846,4.846,0,0,1,8.587,4.893a5.29,5.29,0,0,1-1.763-3.2,5.353,5.353,0,0,1,.924-3.926,5.114,5.114,0,0,1,3.33-2.078l35.99-5.773,66.047-59.233h.056l.056-.058.056-.058a1.847,1.847,0,0,0,.28-.231.224.224,0,0,1,.168-.058v-.058h.056a.65.65,0,0,0,.168-.115l.224-.115a.05.05,0,0,1,.056-.058.651.651,0,0,0,.168-.115.607.607,0,0,1,.28-.058V-70.3a.224.224,0,0,0,.168-.058.9.9,0,0,1,.28-.058.485.485,0,0,1,.224-.058.485.485,0,0,1,.224-.058.607.607,0,0,1,.28-.058h.168a1.027,1.027,0,0,1,.336-.058h.5a.42.42,0,0,1,.168.058h.28a1.027,1.027,0,0,0,.336.058.05.05,0,0,0,.056.058h.112q.168.058.392.115h.056a.05.05,0,0,0,.056.058,1.4,1.4,0,0,1,.336.173h.112a.88.88,0,0,1,.224.173h.056a.05.05,0,0,1,.056.058.159.159,0,0,1,.112.058.159.159,0,0,1,.112.058.05.05,0,0,1,.056.058h.056l.168.173a.159.159,0,0,1,.112.058,1.016,1.016,0,0,1,.28.289.05.05,0,0,1,.056.058h.056a1.015,1.015,0,0,0,.28.289v.058a.05.05,0,0,1,.056.058l.056.058a.9.9,0,0,1,.168.231.673.673,0,0,0,.112.173.05.05,0,0,0,.056.058v.058a.673.673,0,0,1,.112.173l.112.231a.05.05,0,0,1,.056.058.168.168,0,0,0,.056.115,2.286,2.286,0,0,0,.112.289v.058a.24.24,0,0,1,.056.173l.112.231a.525.525,0,0,0,.056.231.525.525,0,0,0,.056.231.66.66,0,0,0,.056.289v.52ZM66.042-13.148l33.751-5.427,7.78-31.81Zm91.29-8.256q9.347,0,13.825,6.293,4.7,7.39,2.687,18.561a160.2,160.2,0,0,1-6.157,23.295q-.952,3.175-1.847,6-1.623,3.695-4.87,3.695a5.339,5.339,0,0,1-1.511-.231,5.039,5.039,0,0,1-3.022-2.569,5.316,5.316,0,0,1-.336-4.012q.9-2.944,1.9-6.12,2.855-8.66,5.093-18.33t-.224-14.116a2.823,2.823,0,0,0-.644-.693,5.293,5.293,0,0,0-1.679-.866,10.08,10.08,0,0,0-3.218-.4A10.176,10.176,0,0,0,154-9.684q-2.491,1.212-6.689,5.773a100.826,100.826,0,0,0-10.243,14.26q-5.149,8.6-8.48,15.328t-3.666,7.65l-.056.058v.058a3.808,3.808,0,0,1-.224.4.05.05,0,0,1-.056.058v.058a.729.729,0,0,0-.168.289l-.112.115a1.883,1.883,0,0,0-.224.289l-.112.115-.224.231v.058a.05.05,0,0,0-.056.058,2.241,2.241,0,0,0-.336.289.159.159,0,0,0-.112.058.05.05,0,0,0-.056.058l-.224.115a.65.65,0,0,0-.168.115,2.721,2.721,0,0,0-.28.173.159.159,0,0,0-.112.058l-.336.115a.159.159,0,0,1-.112.058q-.168.058-.392.115h-.056a2.467,2.467,0,0,1-.9.173h-1.007q-.28-.058-.616-.115a.159.159,0,0,0-.112-.058h-.112l-.224-.115a.485.485,0,0,0-.224-.058l-.056-.058h-.056a.159.159,0,0,1-.112-.058h-.056a.7.7,0,0,0-.28-.173l-.056-.058h-.112a.88.88,0,0,0-.224-.173V35.52h-.056L117.2,35.4a.65.65,0,0,1-.168-.115.05.05,0,0,1-.056-.058h-.056l-.112-.115L116.7,35l-.056-.058-.056-.058-.168-.173a475.121,475.121,0,0,1-.112-.115v-.058a.9.9,0,0,1-.168-.231.05.05,0,0,1-.056-.058l-.056-.058a.05.05,0,0,0-.056-.058l-.112-.231a.168.168,0,0,1-.056-.115l-.056-.058a.05.05,0,0,0-.056-.058.24.24,0,0,0-.056-.173l-.112-.231v-.058a.05.05,0,0,0-.056-.058v-.115l-.112-.346-.056-.058v-.115a.66.66,0,0,1-.056-.289.168.168,0,0,0-.056-.115v-.4a.05.05,0,0,1-.056-.058v-.866a.976.976,0,0,0,.056-.289v-.231l.112-.346,11.586-47.34a5.351,5.351,0,0,1,2.351-3.262,4.878,4.878,0,0,1,3.862-.548,4.979,4.979,0,0,1,3.162,2.4,5.4,5.4,0,0,1,.532,4.012L134.1-3.853Q146.7-21.4,157.332-21.4Zm20.6,57.674a4.98,4.98,0,0,1-3.162-2.4,5.4,5.4,0,0,1-.532-4.012l11.586-47.34a5.335,5.335,0,0,1,2.351-3.2,5.055,5.055,0,0,1,3.862-.606,5.22,5.22,0,0,1,3.162,2.425,5.308,5.308,0,0,1,.532,3.984L184.143,32.46a5.359,5.359,0,0,1-1.875,2.915,4.923,4.923,0,0,1-3.106,1.068A4.529,4.529,0,0,1,177.93,36.27Zm15.616-63.736a4.966,4.966,0,0,1-3.106-2.4,5.591,5.591,0,0,1-.588-4.012l.9-3.522a5.089,5.089,0,0,1,2.323-3.2,5.138,5.138,0,0,1,3.89-.606,5.211,5.211,0,0,1,3.106,2.425,5.5,5.5,0,0,1,.588,3.984l-.9,3.522a5.029,5.029,0,0,1-1.847,2.915,4.96,4.96,0,0,1-3.078,1.068A5.155,5.155,0,0,1,193.546-27.466ZM260.1-21.4a12.933,12.933,0,0,1,6.8,1.559,12.241,12.241,0,0,1,3.778,3.348q4.2,6.293,2.715,16.6a168.162,168.162,0,0,1-4.954,22.371q-1.455,5.311-2.575,9.988a5.231,5.231,0,0,1-2.295,3.233,4.981,4.981,0,0,1-3.862.635,5.1,5.1,0,0,1-3.134-2.367,5.416,5.416,0,0,1-.616-3.984q1.175-4.907,2.631-10.276A174.882,174.882,0,0,0,263.063.3a31.452,31.452,0,0,0,.308-7.707q-.364-2.28-.868-2.685a.977.977,0,0,0-.28-.289,2.649,2.649,0,0,0-.728-.346,4.47,4.47,0,0,0-1.4-.173,2.828,2.828,0,0,0-.476.173,7.175,7.175,0,0,0-1.259.779,17.429,17.429,0,0,0-2.127,1.934,39.089,39.089,0,0,0-3.022,3.637q-1.735,2.309-3.918,5.86t-4.814,8.573q-4.534,8.948-7.416,15.79t-3.05,7.3v.058l-.336.693a5.256,5.256,0,0,1-.392.577l-.112.115a6.248,6.248,0,0,1-.448.52h-.056v.058a5.883,5.883,0,0,1-.5.346l-.112.115-.56.346h-.056q-.28.115-.616.231a.159.159,0,0,1-.112.058l-.672.115h-.056v.058H228.7a.485.485,0,0,1-.224-.058.9.9,0,0,1-.28-.058h-.168l-.056-.058a.9.9,0,0,1-.28-.058.485.485,0,0,0-.224-.058V36.1h-.056a.159.159,0,0,1-.112-.058h-.056l-.224-.115-.224-.115a.88.88,0,0,1-.224-.173l-.224-.115a.372.372,0,0,1-.168-.173.879.879,0,0,1-.224-.173.65.65,0,0,1-.168-.115.9.9,0,0,1-.168-.231.372.372,0,0,1-.168-.173l-.168-.173a.9.9,0,0,0-.168-.231.673.673,0,0,0-.112-.173l-.112-.231a.9.9,0,0,1-.168-.231.525.525,0,0,1-.056-.231l-.112-.231-.112-.231a.525.525,0,0,0-.056-.231.66.66,0,0,1-.056-.289,1875.318,1875.318,0,0,1-.112-.462V31.71a.976.976,0,0,1-.056-.289V30.9a.66.66,0,0,0,.056-.289v-.231a.66.66,0,0,0,.056-.289l.056-.058v-.058q1.175-4.907,2.631-10.276A182.766,182.766,0,0,0,231.383.3a29.157,29.157,0,0,0,.336-7.707,5.9,5.9,0,0,0-.84-2.685.977.977,0,0,0-.28-.289,2.649,2.649,0,0,0-.728-.346,4.7,4.7,0,0,0-1.455-.173l-.42.173a7.862,7.862,0,0,0-1.287.779,16.057,16.057,0,0,0-2.155,1.934,36.629,36.629,0,0,0-2.995,3.637q-1.707,2.309-3.89,5.86t-4.814,8.573q-4.534,8.948-7.444,15.79t-3.022,7.3v.058q-.168.346-.336.635A.05.05,0,0,1,202,33.9v.058a5.251,5.251,0,0,1-.392.577l-.056.058a6.245,6.245,0,0,1-.448.52h-.056a6.168,6.168,0,0,1-.5.462h-.112a2.215,2.215,0,0,1-.56.346l-.056.058h-.056q-.28.115-.616.231l-.056.058-.672.115h-.056v.058h-1.4l-.056-.058a1.787,1.787,0,0,1-.448-.058H196.4a.05.05,0,0,1-.056-.058h-.056a.485.485,0,0,1-.224-.058h-.056a.651.651,0,0,1-.168-.115h-.112l-.056-.058h-.056a2.133,2.133,0,0,1-.28-.115.65.65,0,0,1-.168-.115,2.725,2.725,0,0,0-.28-.173.65.65,0,0,1-.168-.115.88.88,0,0,0-.224-.173.88.88,0,0,1-.224-.173L194.106,35l-.168-.173a.372.372,0,0,0-.168-.173.9.9,0,0,0-.168-.231.674.674,0,0,1-.112-.173.9.9,0,0,1-.168-.231.674.674,0,0,0-.112-.173l-.112-.231-.112-.231-.112-.231a.976.976,0,0,0-.056-.289.525.525,0,0,1-.056-.231l-.112-.231v-.231a.66.66,0,0,1-.056-.289.525.525,0,0,0-.056-.231V30.9a1.121,1.121,0,0,1,.056-.346v-.173a1.121,1.121,0,0,0,.056-.346v-.058a.05.05,0,0,0,.056-.058l11.586-47.34a5.351,5.351,0,0,1,2.351-3.262,4.878,4.878,0,0,1,3.862-.548,4.979,4.979,0,0,1,3.162,2.4,5.4,5.4,0,0,1,.532,4.012l-1.063,4.445Q221.084-21.4,228.417-21.4a13.057,13.057,0,0,1,6.857,1.559A11.563,11.563,0,0,1,239-16.5a17.594,17.594,0,0,1,3.022,10.1Q251.533-21.4,260.1-21.4Zm39.516,34.7q-7.724.4-10.859-2.136a22.49,22.49,0,0,0-1.623,7.794q0,3.348,1.623,4.907,2.127,2.078,7.108,2.078a23.72,23.72,0,0,0,9.879-1.963,31.652,31.652,0,0,0,7.36-4.5,33.7,33.7,0,0,0,4.59-4.5,24.218,24.218,0,0,0,1.623-2.136,5.149,5.149,0,0,1,3.246-2.223,4.761,4.761,0,0,1,3.806.779,5.354,5.354,0,0,1,2.183,3.377,5.533,5.533,0,0,1-.728,3.955q-.224.4-2.379,3.089a44.818,44.818,0,0,1-6.213,6.062,42.128,42.128,0,0,1-9.907,5.975,32.87,32.87,0,0,1-13.461,2.6q-9.123,0-14.161-4.907a17.218,17.218,0,0,1-4.814-12.586q0-12.124,10.8-26.21Q299.837-21.4,311.983-21.4q11.362,0,15.616,6.87a10.538,10.538,0,0,1,1.315,4.59q.308,3.031-1.875,7.245A30.446,30.446,0,0,1,314.893,8.444,41.107,41.107,0,0,1,299.613,13.293ZM295.527-.447q-.9,1.1-1.679,2.252l.5.52a4.523,4.523,0,0,0,1.791.462,16.155,16.155,0,0,0,4.646-.289,31.949,31.949,0,0,0,10.467-4.041A19.7,19.7,0,0,0,318.2-7.952a3.251,3.251,0,0,0,.5-1.386,5.511,5.511,0,0,0-1.847-.953,14.45,14.45,0,0,0-4.87-.606Q304.483-10.9,295.527-.447Z" transform="translate(-0.01 70.649)" fill="#ff79d6"/>
      </g>
      <path id="Path_2" data-name="Path 2" d="M44.741-27.885a21.53,21.53,0,0,1,9.813,1.9,17.857,17.857,0,0,1,5.513,4.052q4.851,5.458,4.851,13.837,0,11.577-8.71,23.32Q46.12,27.354,33.5,27.354A18.438,18.438,0,0,1,23.407,24.79a17.708,17.708,0,0,1-6.174-6.505,20.3,20.3,0,0,1-2.481-8.242A109.785,109.785,0,0,0,8.687,23.936q-.055.221-.11.386L.363,56.793a5.105,5.105,0,0,1-1.847,2.784,4.947,4.947,0,0,1-3.06,1.02,4.592,4.592,0,0,1-1.213-.165,4.889,4.889,0,0,1-3.115-2.288A5.014,5.014,0,0,1-9.4,54.312L10.451-24.081A4.889,4.889,0,0,1,12.739-27.2a5.014,5.014,0,0,1,3.831-.524,4.872,4.872,0,0,1,3.06,2.288,5.2,5.2,0,0,1,.579,3.831l-2.095,8.269A50.116,50.116,0,0,1,30.077-23.751,27.294,27.294,0,0,1,44.741-27.885ZM33.5,17.32A16.2,16.2,0,0,0,44,13.3a30.909,30.909,0,0,0,7.883-9.9,25.127,25.127,0,0,0,3-11.494,15.943,15.943,0,0,0-.441-3.528,8.123,8.123,0,0,0-1.819-3.528q-2.481-2.7-7.883-2.7a18.459,18.459,0,0,0-10.282,3.2A41.527,41.527,0,0,0,25.391-6.44a75.917,75.917,0,0,0-7.5,10.75,4.154,4.154,0,0,1,1.654-.331h.165a4.827,4.827,0,0,1,3.473,1.378A5,5,0,0,1,24.73,8.831a12.144,12.144,0,0,0,.579,3.06,8.17,8.17,0,0,0,2.426,3.721Q29.581,17.32,33.5,17.32ZM91.877,5.247q-7.608.386-10.695-2.04a20.911,20.911,0,0,0-1.6,7.442,6.127,6.127,0,0,0,1.6,4.686q2.095,1.985,7,1.985a24,24,0,0,0,9.73-1.874,31.361,31.361,0,0,0,7.249-4.3,32.723,32.723,0,0,0,4.521-4.3,23.2,23.2,0,0,0,1.6-2.04,5.077,5.077,0,0,1,3.2-2.122,4.808,4.808,0,0,1,3.749.744,5.1,5.1,0,0,1,1.433,7q-.221.386-2.343,2.949a43.527,43.527,0,0,1-6.119,5.789,41.76,41.76,0,0,1-9.758,5.706,33.261,33.261,0,0,1-13.258,2.481q-8.986,0-13.948-4.686A16.17,16.17,0,0,1,69.494,10.65q0-11.577,10.64-25.029Q92.1-27.885,104.06-27.885q11.191,0,15.381,6.56a9.838,9.838,0,0,1,1.3,4.383q.3,2.894-1.847,6.919A29.657,29.657,0,0,1,106.927.616,41.4,41.4,0,0,1,91.877,5.247ZM87.852-7.873Q86.97-6.826,86.2-5.723l.5.5a4.562,4.562,0,0,0,1.764.441,16.4,16.4,0,0,0,4.576-.276,32.067,32.067,0,0,0,10.309-3.859,19.173,19.173,0,0,0,6.836-6.119,3.041,3.041,0,0,0,.5-1.323,5.484,5.484,0,0,0-1.819-.91,14.65,14.65,0,0,0-4.8-.579Q96.673-17.852,87.852-7.873ZM202.961-55.009v.165L183.115,23.605a5.1,5.1,0,0,1-1.847,2.729,4.947,4.947,0,0,1-3.06,1.02,6.767,6.767,0,0,1-1.213-.11,5.122,5.122,0,0,1-3.115-2.315,4.934,4.934,0,0,1-.524-3.8L180.91-8.811q-18.964,32.8-34.731,36.054a26.829,26.829,0,0,1-5.568.662,14.718,14.718,0,0,1-7.36-1.6,13.186,13.186,0,0,1-4.217-3.583q-7.222-10.089,1.323-28.391A53.355,53.355,0,0,1,136.944-16a39.713,39.713,0,0,1,9.289-8.462,20.29,20.29,0,0,1,11.3-3.418q10.144,0,16.318,7.277.662.827,1.213,1.654.606-1.1,1.213-2.26,7.608-14.389,12.266-25.194t4.824-11.522a.049.049,0,0,0,.055-.055v-.055l.055-.055.11-.221a.159.159,0,0,1,.055-.11v-.055l.055-.055.11-.221a.642.642,0,0,0,.11-.165.864.864,0,0,0,.165-.221.642.642,0,0,1,.11-.165.049.049,0,0,0,.055-.055l.165-.165.165-.165.055-.055.11-.11a.361.361,0,0,0,.165-.165h.055a.361.361,0,0,0,.165-.165.641.641,0,0,0,.165-.11h.055l.221-.11a.641.641,0,0,1,.165-.11,2.14,2.14,0,0,1,.276-.11l.11-.11h.055a2.139,2.139,0,0,1,.276-.11h.11l.055-.055a.614.614,0,0,0,.276-.055.423.423,0,0,0,.165-.055h.055a.907.907,0,0,0,.276-.055h.221a.907.907,0,0,0,.276-.055h.276a.225.225,0,0,1,.165.055h.331a.225.225,0,0,1,.165.055.614.614,0,0,1,.276.055h.221l.221.11h.11a.489.489,0,0,0,.221.055v.055h.11l.055.055h.055l.221.11a.225.225,0,0,0,.165.055.049.049,0,0,0,.055.055.864.864,0,0,1,.221.165.423.423,0,0,1,.165.055v.055h.055a.361.361,0,0,1,.165.165.641.641,0,0,1,.165.11.049.049,0,0,1,.055.055.641.641,0,0,1,.165.11.864.864,0,0,1,.165.221h.055a.641.641,0,0,0,.11.165l.165.165v.055h.055a.225.225,0,0,1,.055.165.864.864,0,0,1,.165.221.641.641,0,0,1,.11.165l.11.221.11.221a.642.642,0,0,0,.11.165v.055l.11.221a.225.225,0,0,0,.055.165v.055a.907.907,0,0,0,.055.276.423.423,0,0,0,.055.165v.055a.489.489,0,0,0,.055.221v1.323a.225.225,0,0,1-.055.165A.614.614,0,0,1,202.961-55.009ZM167.679-6.385a9.591,9.591,0,0,0-1.654-7.939q-2.922-3.528-8.49-3.528-4.465,0-9.455,4.576A40.508,40.508,0,0,0,139.4-1.258a35.509,35.509,0,0,0-3.446,11.136q-.469,4.741.965,6.615a4.1,4.1,0,0,0,3.142,1.323,15.824,15.824,0,0,0,3.969-.386q2.977-.331,8.876-5.292T167.679-6.385Zm26.738,33.573A4.889,4.889,0,0,1,191.3,24.9a5.014,5.014,0,0,1-.524-3.831l11.412-45.206A5.11,5.11,0,0,1,204.5-27.2a5.113,5.113,0,0,1,3.8-.579,5.122,5.122,0,0,1,3.115,2.315,4.934,4.934,0,0,1,.524,3.8L200.536,23.55a5.105,5.105,0,0,1-1.847,2.784,4.947,4.947,0,0,1-3.06,1.02A4.592,4.592,0,0,1,194.416,27.189ZM209.8-33.674a4.872,4.872,0,0,1-3.06-2.288,5.2,5.2,0,0,1-.579-3.831l.882-3.363a4.872,4.872,0,0,1,2.288-3.06,5.2,5.2,0,0,1,3.831-.579,5.11,5.11,0,0,1,3.06,2.315,5.113,5.113,0,0,1,.579,3.8l-.882,3.363a4.789,4.789,0,0,1-1.819,2.784,4.984,4.984,0,0,1-3.032,1.02A5.227,5.227,0,0,1,209.8-33.674Zm72.494,10.64v.772a.489.489,0,0,0-.055.221.614.614,0,0,1-.055.276v.165L270.715,23.605a5.1,5.1,0,0,1-1.847,2.729,4.947,4.947,0,0,1-3.06,1.02,6.767,6.767,0,0,1-1.213-.11,5.223,5.223,0,0,1-3.087-2.315,4.862,4.862,0,0,1-.551-3.8l4.19-16.539Q246.734,27.354,230.8,27.354q-8.986,0-13.948-4.686a16.17,16.17,0,0,1-4.741-12.018q0-11.577,10.64-25.029,11.963-13.507,23.926-13.507,17.421,0,19.075,14.444,3.308-5.072,5.155-8.324t1.9-3.418l.055-.055v-.055a2.687,2.687,0,0,0,.165-.276.641.641,0,0,1,.11-.165,1.808,1.808,0,0,0,.22-.276l.11-.11a.864.864,0,0,0,.165-.221l.165-.165a.864.864,0,0,1,.221-.165.36.36,0,0,1,.165-.165.864.864,0,0,0,.221-.165.641.641,0,0,1,.165-.11l.221-.11.221-.11.221-.11a.642.642,0,0,0,.165-.11l.331-.11h.11l.331-.11h.165a1.041,1.041,0,0,1,.331-.055.225.225,0,0,1,.165-.055h.772a.907.907,0,0,1,.276.055h.221a.614.614,0,0,0,.276.055h.055l.055.055h.11l.221.11a.614.614,0,0,1,.276.055.225.225,0,0,0,.165.055v.055l.331.11h.055v.055h.055l.331.221a.159.159,0,0,1,.11.055,1.807,1.807,0,0,1,.276.221.641.641,0,0,0,.165.11.863.863,0,0,1,.165.221.36.36,0,0,1,.165.165.361.361,0,0,1,.165.165l.165.165a.864.864,0,0,0,.165.221l.11.221a.641.641,0,0,1,.11.165l.11.221.11.221.11.221a2.144,2.144,0,0,1,.11.276.423.423,0,0,0,.055.165.613.613,0,0,0,.055.276.49.49,0,0,0,.055.221.907.907,0,0,0,.055.276v.441ZM258.476-3.243q1.323-1.709,2.591-3.418a4.922,4.922,0,0,1-3.611-1.3,5.115,5.115,0,0,1-1.626-3.5,9.8,9.8,0,0,0-.5-3.17,4.169,4.169,0,0,0-2.371-2.343,16.009,16.009,0,0,0-6.285-.882q-7.387,0-16.208,9.978Q222.2,2.766,222.2,10.65a7.832,7.832,0,0,0,1.461,4.576q1.461,2.095,7.139,2.095Q242.1,17.32,258.476-3.243Z" transform="translate(-394.566 984.892)" fill="#ff79d6"/>
      <path id="Path_1" data-name="Path 1" d="M119.791-65.8v.772a.489.489,0,0,1-.055.221.907.907,0,0,1-.055.276v.165l-.055.055L109.1-22.632l2.922-.441a4.992,4.992,0,0,1,3.749.91,5.058,5.058,0,0,1,1.985,3.28,4.992,4.992,0,0,1-.91,3.749,5.058,5.058,0,0,1-3.28,1.985l-7.167,1.158L96.14,27.811a4.838,4.838,0,0,1-1.792,2.784,4.947,4.947,0,0,1-3.06,1.02,4.592,4.592,0,0,1-1.213-.165,4.889,4.889,0,0,1-3.115-2.288,5.084,5.084,0,0,1-.579-3.776l9.207-35.724-44.82,7L8.32,33.489A5.257,5.257,0,0,1,5.012,34.7a5.271,5.271,0,0,1-3.8-1.709A5.134,5.134,0,0,1,.023,29.327,5.033,5.033,0,0,1,1.7,25.881L32.025-.415,12.455,2.617a5.451,5.451,0,0,1-.772.055A4.86,4.86,0,0,1,8.458,1.487a5.012,5.012,0,0,1-1.737-3.06,4.992,4.992,0,0,1,.91-3.749,5.058,5.058,0,0,1,3.28-1.985l35.448-5.513,65.052-56.562h.055l.055-.055.055-.055a1.807,1.807,0,0,0,.276-.221.225.225,0,0,1,.165-.055v-.055h.055a.641.641,0,0,0,.165-.11l.221-.11a.049.049,0,0,1,.055-.055.641.641,0,0,0,.165-.11.614.614,0,0,1,.276-.055v-.055a.225.225,0,0,0,.165-.055.907.907,0,0,1,.276-.055.489.489,0,0,1,.221-.055.489.489,0,0,1,.221-.055.614.614,0,0,1,.276-.055h.165a1.041,1.041,0,0,1,.331-.055h.5a.423.423,0,0,1,.165.055h.276a1.04,1.04,0,0,0,.331.055.049.049,0,0,0,.055.055h.11q.165.055.386.11h.055a.049.049,0,0,0,.055.055,1.392,1.392,0,0,1,.331.165h.11a.864.864,0,0,1,.221.165h.055a.049.049,0,0,1,.055.055.159.159,0,0,1,.11.055.159.159,0,0,1,.11.055.049.049,0,0,1,.055.055h.055l.165.165a.159.159,0,0,1,.11.055.984.984,0,0,1,.276.276.049.049,0,0,1,.055.055h.055a.984.984,0,0,0,.276.276v.055a.049.049,0,0,1,.055.055l.055.055a.864.864,0,0,1,.165.221.642.642,0,0,0,.11.165.049.049,0,0,0,.055.055v.055a.641.641,0,0,1,.11.165l.11.221a.049.049,0,0,1,.055.055.159.159,0,0,0,.055.11,2.14,2.14,0,0,0,.11.276v.055a.225.225,0,0,1,.055.165l.11.221a.489.489,0,0,0,.055.221.489.489,0,0,0,.055.221.614.614,0,0,0,.055.276v.5ZM65.048-15.741,98.29-20.923,105.953-51.3Zm89.915-7.883q9.207,0,13.617,6.009,4.631,7.056,2.646,17.724a149.244,149.244,0,0,1-6.064,22.245q-.937,3.032-1.819,5.733-1.6,3.528-4.8,3.528a5.411,5.411,0,0,1-1.488-.221,4.972,4.972,0,0,1-3.308-6.285q.882-2.812,1.874-5.844,2.812-8.269,5.017-17.5t-.221-13.479a2.727,2.727,0,0,0-.634-.662,5.271,5.271,0,0,0-1.654-.827,10.22,10.22,0,0,0-3.17-.386,10.235,10.235,0,0,0-3.28,1.158q-2.453,1.158-6.588,5.513A96.444,96.444,0,0,0,135.006,6.7q-5.072,8.214-8.352,14.637t-3.611,7.3l-.055.055v.055a3.606,3.606,0,0,1-.221.386.049.049,0,0,1-.055.055v.055a.692.692,0,0,0-.165.276l-.11.11a1.807,1.807,0,0,0-.221.276l-.11.11-.221.221v.055a.049.049,0,0,0-.055.055,2.19,2.19,0,0,0-.331.276.159.159,0,0,0-.11.055.049.049,0,0,0-.055.055l-.221.11a.641.641,0,0,0-.165.11,2.7,2.7,0,0,0-.276.165.159.159,0,0,0-.11.055l-.331.11a.159.159,0,0,1-.11.055q-.165.055-.386.11h-.055a2.5,2.5,0,0,1-.882.165h-.992q-.276-.055-.606-.11a.159.159,0,0,0-.11-.055h-.11l-.221-.11a.489.489,0,0,0-.221-.055l-.055-.055h-.055a.159.159,0,0,1-.11-.055h-.055a.692.692,0,0,0-.276-.165l-.055-.055h-.11a.864.864,0,0,0-.221-.165v-.055h-.055l-.11-.11a.641.641,0,0,1-.165-.11.049.049,0,0,1-.055-.055h-.055l-.11-.11-.11-.11-.055-.055-.055-.055-.165-.165a1502.15,1502.15,0,0,0-.11-.11V29.8a.864.864,0,0,1-.165-.221.049.049,0,0,1-.055-.055l-.055-.055a.049.049,0,0,0-.055-.055l-.11-.221a.159.159,0,0,1-.055-.11L114,29.024a.049.049,0,0,0-.055-.055.225.225,0,0,0-.055-.165l-.11-.221v-.055a.049.049,0,0,0-.055-.055v-.11l-.11-.331-.055-.055v-.11a.614.614,0,0,1-.055-.276.159.159,0,0,0-.055-.11v-.386a.049.049,0,0,1-.055-.055v-.827a.907.907,0,0,0,.055-.276v-.221l.11-.331,11.412-45.206a5.122,5.122,0,0,1,2.315-3.115,4.934,4.934,0,0,1,3.8-.524,4.889,4.889,0,0,1,3.115,2.288,5.014,5.014,0,0,1,.524,3.831L132.084-6.865Q144.488-23.624,154.963-23.624ZM175.25,31.449a4.889,4.889,0,0,1-3.115-2.288,5.014,5.014,0,0,1-.524-3.831l11.412-45.206a5.11,5.11,0,0,1,2.315-3.06,5.113,5.113,0,0,1,3.8-.579,5.122,5.122,0,0,1,3.115,2.315,4.934,4.934,0,0,1,.524,3.8L181.369,27.811a5.105,5.105,0,0,1-1.847,2.784,4.947,4.947,0,0,1-3.06,1.02A4.592,4.592,0,0,1,175.25,31.449Zm15.381-60.862a4.872,4.872,0,0,1-3.06-2.288,5.2,5.2,0,0,1-.579-3.831l.882-3.363a4.872,4.872,0,0,1,2.288-3.06,5.2,5.2,0,0,1,3.831-.579,5.11,5.11,0,0,1,3.06,2.315,5.113,5.113,0,0,1,.579,3.8l-.882,3.363a4.789,4.789,0,0,1-1.819,2.784,4.984,4.984,0,0,1-3.032,1.02A5.227,5.227,0,0,1,190.631-29.413Zm65.548,5.789a13.062,13.062,0,0,1,6.7,1.488,11.939,11.939,0,0,1,3.721,3.2q4.135,6.009,2.674,15.85a156.4,156.4,0,0,1-4.879,21.362q-1.433,5.072-2.536,9.537A5.021,5.021,0,0,1,252.1,25.44q1.158-4.686,2.591-9.813A162.7,162.7,0,0,0,259.1-2.9a29.129,29.129,0,0,0,.3-7.36,4.849,4.849,0,0,0-.855-2.563.946.946,0,0,0-.276-.276,2.644,2.644,0,0,0-.717-.331,4.532,4.532,0,0,0-1.378-.165,2.845,2.845,0,0,0-.469.165,7.113,7.113,0,0,0-1.24.744,17,17,0,0,0-2.095,1.847A37.619,37.619,0,0,0,249.4-7.361q-1.709,2.205-3.859,5.6T240.8,6.421q-4.465,8.545-7.3,15.078t-3,6.974v.055l-.331.662a5.016,5.016,0,0,1-.386.551l-.11.11a6.015,6.015,0,0,1-.441.5h-.055V30.4a5.809,5.809,0,0,1-.5.331l-.11.11-.551.331h-.055q-.276.11-.606.221a.159.159,0,0,1-.11.055l-.662.11h-.055v.055h-1.268a.489.489,0,0,1-.221-.055.907.907,0,0,1-.276-.055h-.165l-.055-.055a.907.907,0,0,1-.276-.055.489.489,0,0,0-.221-.055v-.055h-.055a.159.159,0,0,1-.11-.055h-.055l-.221-.11-.221-.11a.864.864,0,0,1-.221-.165l-.221-.11a.361.361,0,0,1-.165-.165.864.864,0,0,1-.221-.165.641.641,0,0,1-.165-.11.864.864,0,0,1-.165-.221.361.361,0,0,1-.165-.165l-.165-.165a.864.864,0,0,0-.165-.221.641.641,0,0,0-.11-.165l-.11-.221a.864.864,0,0,1-.165-.221.489.489,0,0,1-.055-.221l-.11-.221-.11-.221a.489.489,0,0,0-.055-.221.614.614,0,0,1-.055-.276,1699476031599.753,1699476031599.753,0,0,1-.11-.441v-.221a.907.907,0,0,1-.055-.276v-.5a.614.614,0,0,0,.055-.276v-.221a.614.614,0,0,0,.055-.276l.055-.055V25.44q1.158-4.686,2.591-9.813A170.008,170.008,0,0,0,227.9-2.9a27,27,0,0,0,.331-7.36,5.521,5.521,0,0,0-.827-2.563.946.946,0,0,0-.276-.276,2.645,2.645,0,0,0-.717-.331,4.771,4.771,0,0,0-1.433-.165l-.413.165a7.8,7.8,0,0,0-1.268.744,15.667,15.667,0,0,0-2.122,1.847,35.238,35.238,0,0,0-2.949,3.473q-1.681,2.205-3.831,5.6t-4.741,8.187q-4.465,8.545-7.332,15.078t-2.977,6.974v.055q-.165.331-.331.606a.049.049,0,0,1-.055.055v.055a5.016,5.016,0,0,1-.386.551l-.055.055a6.018,6.018,0,0,1-.441.5h-.055a6.014,6.014,0,0,1-.5.441h-.11a2.194,2.194,0,0,1-.551.331l-.055.055h-.055q-.276.11-.606.221l-.055.055-.662.11h-.055v.055h-1.378l-.055-.055a1.812,1.812,0,0,1-.441-.055h-.055a.049.049,0,0,1-.055-.055h-.055a.489.489,0,0,1-.221-.055h-.055a.641.641,0,0,1-.165-.11h-.11l-.055-.055h-.055a2.138,2.138,0,0,1-.276-.11.641.641,0,0,1-.165-.11,2.7,2.7,0,0,0-.276-.165.641.641,0,0,1-.165-.11.864.864,0,0,0-.221-.165.864.864,0,0,1-.221-.165l-.165-.165-.165-.165a.361.361,0,0,0-.165-.165.864.864,0,0,0-.165-.221.641.641,0,0,1-.11-.165.864.864,0,0,1-.165-.221.642.642,0,0,0-.11-.165l-.11-.221-.11-.221-.11-.221a.907.907,0,0,0-.055-.276.489.489,0,0,1-.055-.221l-.11-.221v-.221a.614.614,0,0,1-.055-.276.489.489,0,0,0-.055-.221v-.717a1.041,1.041,0,0,1,.055-.331v-.165a1.04,1.04,0,0,0,.055-.331V25.44a.049.049,0,0,0,.055-.055l11.412-45.206a5.122,5.122,0,0,1,2.315-3.115,4.934,4.934,0,0,1,3.8-.524,4.889,4.889,0,0,1,3.115,2.288,5.014,5.014,0,0,1,.524,3.831l-1.047,4.245q7.828-10.53,15.05-10.53a13.189,13.189,0,0,1,6.753,1.488,11.27,11.27,0,0,1,3.666,3.2,16.441,16.441,0,0,1,2.977,9.648Q247.745-23.624,256.179-23.624ZM295.1,9.508q-7.608.386-10.7-2.04a20.91,20.91,0,0,0-1.6,7.442,6.127,6.127,0,0,0,1.6,4.686q2.095,1.985,7,1.985a24,24,0,0,0,9.73-1.874,31.361,31.361,0,0,0,7.249-4.3,32.722,32.722,0,0,0,4.521-4.3,23.2,23.2,0,0,0,1.6-2.04,5.077,5.077,0,0,1,3.2-2.122,4.808,4.808,0,0,1,3.749.744,5.1,5.1,0,0,1,1.433,7q-.221.386-2.343,2.949a43.526,43.526,0,0,1-6.119,5.789,41.761,41.761,0,0,1-9.758,5.706,33.261,33.261,0,0,1-13.258,2.481q-8.986,0-13.948-4.686a16.17,16.17,0,0,1-4.741-12.018q0-11.577,10.64-25.029,11.963-13.507,23.926-13.507,11.191,0,15.381,6.56a9.839,9.839,0,0,1,1.3,4.383q.3,2.894-1.847,6.919a29.657,29.657,0,0,1-11.963,10.64A41.4,41.4,0,0,1,295.1,9.508ZM291.076-3.613q-.882,1.047-1.654,2.15l.5.5a4.562,4.562,0,0,0,1.764.441A16.4,16.4,0,0,0,296.258-.8,32.068,32.068,0,0,0,306.567-4.66a19.173,19.173,0,0,0,6.836-6.119,3.041,3.041,0,0,0,.5-1.323,5.483,5.483,0,0,0-1.819-.91,14.65,14.65,0,0,0-4.8-.579Q299.9-13.591,291.076-3.613Z" transform="translate(-721.759 980.631)" fill="#383838"/>
    </g>
  </g>
</svg>
