<svg xmlns="http://www.w3.org/2000/svg" xmlns:xlink="http://www.w3.org/1999/xlink" width="500" height="500" viewBox="0 0 500 500">
  <defs>
    <clipPath id="clip-short_logo">
      <rect width="500" height="500"/>
    </clipPath>
  </defs>
  <g id="short_logo" clip-path="url(#clip-short_logo)">
    <g id="Group_2" data-name="Group 2" transform="translate(-4.195 -126.733)">
      <path id="Path_3" data-name="Path 3" d="M127-37.078q15.389,0,24.678,4.934t13.864,10.511q12.2,14.157,12.2,35.894,0,30.031-21.906,60.49-25.372,31.461-57.121,31.461-15.251,0-25.372-6.65A45.374,45.374,0,0,1,57.816,82.688a53.882,53.882,0,0,1-6.239-21.379Q40.9,83.188,36.326,97.345q-.139.572-.277,1L15.391,182.575a13.274,13.274,0,0,1-4.645,7.222,12.194,12.194,0,0,1-7.695,2.646A11.219,11.219,0,0,1,0,192.014a12.334,12.334,0,0,1-7.833-5.935,13.363,13.363,0,0,1-1.317-9.939L40.762-27.21a12.657,12.657,0,0,1,5.754-8.08,12.277,12.277,0,0,1,9.636-1.359,12.3,12.3,0,0,1,7.695,5.935A13.848,13.848,0,0,1,65.3-20.775L60.034.675A127.279,127.279,0,0,1,90.119-26.352,67.093,67.093,0,0,1,127-37.078ZM98.715,80.185q14.142,0,26.412-10.439a79.806,79.806,0,0,0,19.826-25.669q7.556-15.23,7.556-29.816A42.591,42.591,0,0,0,151.4,5.108a21.315,21.315,0,0,0-4.575-9.152Q140.586-11.051,127-11.051a45.434,45.434,0,0,0-25.857,8.294A105.645,105.645,0,0,0,78.335,18.551,197.153,197.153,0,0,0,59.479,46.436a10.171,10.171,0,0,1,4.159-.858h.416a11.945,11.945,0,0,1,8.735,3.575,13.16,13.16,0,0,1,3.882,9.009A32.39,32.39,0,0,0,78.127,66.1a21.272,21.272,0,0,0,6.1,9.653Q88.872,80.185,98.715,80.185Z" transform="translate(304.177 360.041)" fill="#383838"/>
      <path id="Path_4" data-name="Path 4" d="M301.245-57.493v1.43a1.3,1.3,0,0,1-.139.572,2.418,2.418,0,0,1-.139.715v.429l-.139.143L274.348,53.906l7.348-1.144a12.265,12.265,0,0,1,9.428,2.36,13.356,13.356,0,0,1,2.7,18.233,12.667,12.667,0,0,1-8.249,5.148l-18.024,3L241.767,184.754a12.591,12.591,0,0,1-4.506,7.222,12.194,12.194,0,0,1-7.695,2.646,11.218,11.218,0,0,1-3.05-.429,12.334,12.334,0,0,1-7.833-5.935,13.545,13.545,0,0,1-1.456-9.8L240.381,85.8,127.664,103.958,20.909,199.484a12.979,12.979,0,0,1-8.319,3.146A13.075,13.075,0,0,1,3.024,198.2a13.6,13.6,0,0,1-2.981-9.51,13.216,13.216,0,0,1,4.229-8.938l76.254-68.213L31.307,119.4a13.3,13.3,0,0,1-1.941.143,12,12,0,0,1-8.111-3.075,13.1,13.1,0,0,1-4.367-7.937,13.26,13.26,0,0,1,2.288-9.724,12.667,12.667,0,0,1,8.249-5.148l89.148-14.3L280.171-67.36h.139l.139-.143.139-.143a4.576,4.576,0,0,0,.693-.572.554.554,0,0,1,.416-.143V-68.5h.139a1.611,1.611,0,0,0,.416-.286l.555-.286a.124.124,0,0,1,.139-.143,1.611,1.611,0,0,0,.416-.286,1.5,1.5,0,0,1,.693-.143v-.143a.554.554,0,0,0,.416-.143,2.22,2.22,0,0,1,.693-.143,1.2,1.2,0,0,1,.555-.143,1.2,1.2,0,0,1,.555-.143,1.5,1.5,0,0,1,.693-.143h.416a2.545,2.545,0,0,1,.832-.143h1.248a1.041,1.041,0,0,1,.416.143h.693a2.545,2.545,0,0,0,.832.143.124.124,0,0,0,.139.143h.277q.416.143.971.286h.139a.125.125,0,0,0,.139.143,3.459,3.459,0,0,1,.832.429h.277a2.179,2.179,0,0,1,.555.429h.139a.125.125,0,0,1,.139.143.4.4,0,0,1,.277.143.4.4,0,0,1,.277.143.125.125,0,0,1,.139.143h.139l.416.429a.4.4,0,0,1,.277.143,2.516,2.516,0,0,1,.693.715.125.125,0,0,1,.139.143h.139a2.515,2.515,0,0,0,.693.715v.143a.125.125,0,0,1,.139.143l.139.143a2.238,2.238,0,0,1,.416.572,1.668,1.668,0,0,0,.277.429.125.125,0,0,0,.139.143v.143a1.667,1.667,0,0,1,.277.429l.277.572a.125.125,0,0,1,.139.143.417.417,0,0,0,.139.286,5.663,5.663,0,0,0,.277.715v.143a.594.594,0,0,1,.139.429l.277.572a1.3,1.3,0,0,0,.139.572,1.3,1.3,0,0,0,.139.572,1.634,1.634,0,0,0,.139.715v1.859ZM163.572,71.782l83.6-13.442,19.271-78.795Z" transform="translate(26.461 271.631)" fill="#ff79d6"/>
      <path id="Path_2" data-name="Path 2" d="M124.942-38.162q15.158,0,24.307,4.711T162.9-23.414Q174.921-9.9,174.921,10.861q0,28.677-21.576,57.763-24.99,30.042-56.261,30.042-15.021,0-24.99-6.35A43.864,43.864,0,0,1,56.8,76.2a50.286,50.286,0,0,1-6.145-20.415Q40.141,76.681,35.635,90.2q-.137.546-.273.956L15.015,171.586a12.646,12.646,0,0,1-4.575,6.9,12.253,12.253,0,0,1-7.579,2.526,11.374,11.374,0,0,1-3-.41,12.11,12.11,0,0,1-7.715-5.667,12.42,12.42,0,0,1-1.3-9.491L40-28.74a12.11,12.11,0,0,1,5.667-7.715,12.42,12.42,0,0,1,9.491-1.3,12.069,12.069,0,0,1,7.579,5.667,12.874,12.874,0,0,1,1.434,9.491L58.986-2.112A124.139,124.139,0,0,1,88.618-27.92,67.609,67.609,0,0,1,124.942-38.162ZM97.084,73.813q13.929,0,26.014-9.969a76.562,76.562,0,0,0,19.527-24.512q7.442-14.543,7.442-28.472a39.491,39.491,0,0,0-1.092-8.74,20.122,20.122,0,0,0-4.506-8.74q-6.145-6.691-19.527-6.691a45.723,45.723,0,0,0-25.467,7.92A102.863,102.863,0,0,0,77.011,14.958,188.048,188.048,0,0,0,58.439,41.586a10.289,10.289,0,0,1,4.1-.819h.41a11.957,11.957,0,0,1,8.6,3.414,12.388,12.388,0,0,1,3.824,8.6,30.08,30.08,0,0,0,1.434,7.579,20.237,20.237,0,0,0,6.008,9.217Q87.389,73.813,97.084,73.813Z" transform="translate(294.077 355.626)" fill="#ff79d6"/>
      <path id="Path_1" data-name="Path 1" d="M296.708-58.086v1.366a1.212,1.212,0,0,1-.137.546,2.246,2.246,0,0,1-.137.683v.41l-.137.137L270.216,48.29l7.237-1.092a12.365,12.365,0,0,1,9.286,2.253,12.53,12.53,0,0,1,4.916,8.125,12.365,12.365,0,0,1-2.253,9.286,12.53,12.53,0,0,1-8.125,4.916l-17.752,2.868-25.4,98.593a11.983,11.983,0,0,1-4.438,6.9,12.253,12.253,0,0,1-7.579,2.526,11.374,11.374,0,0,1-3-.41,12.11,12.11,0,0,1-7.715-5.667,12.592,12.592,0,0,1-1.434-9.354l22.8-88.488L125.741,96.084,20.594,187.3a13.022,13.022,0,0,1-8.193,3,13.055,13.055,0,0,1-9.422-4.233,12.717,12.717,0,0,1-2.936-9.081,12.467,12.467,0,0,1,4.165-8.535l75.105-65.137-48.477,7.511a13.5,13.5,0,0,1-1.912.137,12.038,12.038,0,0,1-7.988-2.936,12.4,12.4,0,0,1,6.077-21.781l87.8-13.655L275.952-67.509h.137l.137-.137.137-.137a4.475,4.475,0,0,0,.683-.546.556.556,0,0,1,.41-.137V-68.6h.137a1.589,1.589,0,0,0,.41-.273l.546-.273a.121.121,0,0,1,.137-.137,1.589,1.589,0,0,0,.41-.273,1.52,1.52,0,0,1,.683-.137v-.137a.556.556,0,0,0,.41-.137,2.247,2.247,0,0,1,.683-.137,1.212,1.212,0,0,1,.546-.137,1.212,1.212,0,0,1,.546-.137,1.52,1.52,0,0,1,.683-.137h.41a2.577,2.577,0,0,1,.819-.137H285.1a1.048,1.048,0,0,1,.41.137h.683a2.578,2.578,0,0,0,.819.137.121.121,0,0,0,.137.137h.273q.41.137.956.273h.137a.121.121,0,0,0,.137.137,3.446,3.446,0,0,1,.819.41h.273a2.139,2.139,0,0,1,.546.41h.137a.121.121,0,0,1,.137.137.394.394,0,0,1,.273.137.393.393,0,0,1,.273.137.121.121,0,0,1,.137.137h.137l.41.41a.393.393,0,0,1,.273.137,2.438,2.438,0,0,1,.683.683.121.121,0,0,1,.137.137h.137a2.438,2.438,0,0,0,.683.683v.137a.121.121,0,0,1,.137.137l.137.137a2.14,2.14,0,0,1,.41.546,1.588,1.588,0,0,0,.273.41.121.121,0,0,0,.137.137v.137a1.588,1.588,0,0,1,.273.41l.273.546a.121.121,0,0,1,.137.137.393.393,0,0,0,.137.273,5.3,5.3,0,0,0,.273.683v.137a.556.556,0,0,1,.137.41l.273.546a1.212,1.212,0,0,0,.137.546,1.212,1.212,0,0,0,.137.546,1.52,1.52,0,0,0,.137.683v1.775ZM161.109,65.359l82.343-12.836,18.981-75.242Z" transform="translate(28.393 271.631)" fill="#383838"/>
    </g>
  </g>
</svg>
