<svg xmlns="http://www.w3.org/2000/svg" xmlns:xlink="http://www.w3.org/1999/xlink" width="49" height="49" viewBox="0 0 49 49">
  <defs>
    <clipPath id="clip-icon_animelist">
      <rect width="49" height="49"/>
    </clipPath>
  </defs>
  <g id="icon_animelist" clip-path="url(#clip-icon_animelist)">
    <g id="_67779355116257460073625" data-name="67779355116257460073625" transform="translate(2.37 2.643)">
      <path id="Path_5" data-name="Path 5" d="M38.305,29.39H5.955A3.851,3.851,0,0,0,2.11,33.234V47.387a3.851,3.851,0,0,0,3.845,3.845H38.305a3.851,3.851,0,0,0,3.845-3.845V33.234a3.851,3.851,0,0,0-3.845-3.845Zm1.165,18a1.165,1.165,0,0,1-1.165,1.165H5.955a1.165,1.165,0,0,1-1.165-1.165V33.234a1.165,1.165,0,0,1,1.165-1.165H38.305a1.165,1.165,0,0,1,1.165,1.165Z" transform="translate(0 -9.044)"/>
      <path id="Path_6" data-name="Path 6" d="M9.01,22.869H38.922a1.34,1.34,0,1,0,0-2.679H9.01a1.34,1.34,0,1,0,0,2.679Z" transform="translate(-1.836 -6.007)"/>
      <path id="Path_7" data-name="Path 7" d="M16.13,13.539H36.5a1.34,1.34,0,1,0,0-2.679H16.13a1.34,1.34,0,0,0,0,2.679Z" transform="translate(-4.187 -2.926)"/>
      <path id="Path_8" data-name="Path 8" d="M25,4.679h8.493a1.34,1.34,0,0,0,0-2.679H25a1.34,1.34,0,0,0,0,2.679Z" transform="translate(-7.116)"/>
    </g>
  </g>
</svg>
