<svg xmlns="http://www.w3.org/2000/svg" xmlns:xlink="http://www.w3.org/1999/xlink" width="49" height="49" viewBox="0 0 49 49">
  <defs>
    <clipPath id="clip-icon_mycollections">
      <rect width="49" height="49"/>
    </clipPath>
  </defs>
  <g id="icon_mycollections" clip-path="url(#clip-icon_mycollections)">
    <path id="_Icon-Color" data-name="🔹Icon-Color" d="M7.8,16.214H35.839a2.8,2.8,0,1,1,0,5.607H7.8a2.8,2.8,0,1,1,0-5.607ZM7.8,5H35.839a2.8,2.8,0,1,1,0,5.607H7.8A2.8,2.8,0,0,1,7.8,5Zm0,22.428H24.625a2.8,2.8,0,1,1,0,5.607H7.8a2.8,2.8,0,1,1,0-5.607ZM33.035,29.9V41.754a1.4,1.4,0,0,0,2.131,1.206l9.9-5.943a1.416,1.416,0,0,0,0-2.411l-9.9-5.943A1.425,1.425,0,0,0,33.035,29.9Z" transform="translate(0.157 0.535)" fill="#1d1d1d" fill-rule="evenodd"/>
  </g>
</svg>
