<svg xmlns="http://www.w3.org/2000/svg" xmlns:xlink="http://www.w3.org/1999/xlink" width="100" height="100" viewBox="0 0 100 100">
  <defs>
    <clipPath id="clip-icon_movie">
      <rect width="100" height="100"/>
    </clipPath>
  </defs>
  <g id="icon_movie" clip-path="url(#clip-icon_movie)">
    <g id="_3.Multimedia" data-name="3.Multimedia" transform="translate(5.818 14.329)">
      <g id="Multimedia-_Stroke_" data-name="Multimedia-(Stroke)" transform="translate(-0.5 -0.5)">
        <g id="_6-multimeda-video-movie-play" data-name="6-multimeda-video-movie-play">
          <path id="Layer-1" d="M1.1-2.5H83.269a3.606,3.606,0,0,1,3.6,3.608V66.235a3.606,3.606,0,0,1-3.6,3.608H1.1a3.606,3.606,0,0,1-3.6-3.608V1.108A3.606,3.606,0,0,1,1.1-2.5ZM82.609,1.755H1.755V65.587H82.609Z" transform="translate(2.5 2.5)"/>
          <path id="Layer-2" d="M41.628,23.5a2.126,2.126,0,0,1,1.228.39L60.913,36.657a2.128,2.128,0,0,1,0,3.475L42.856,52.9A2.128,2.128,0,0,1,39.5,51.16V25.628A2.128,2.128,0,0,1,41.628,23.5ZM56,38.394,43.755,29.738V47.05Z" transform="translate(-3.754 -1.372)"/>
          <path id="Layer-3" d="M-.372-2.5H16.65A2.128,2.128,0,0,1,18.777-.372V16.65a2.128,2.128,0,0,1-2.128,2.128H-.372A2.128,2.128,0,0,1-2.5,16.65V-.372A2.128,2.128,0,0,1-.372-2.5ZM14.522,1.755H1.755V14.522H14.522Z" transform="translate(70.587 2.5)"/>
          <path id="Layer-4" d="M-.372-2.5H16.65A2.128,2.128,0,0,1,18.777-.372V16.65a2.128,2.128,0,0,1-2.128,2.128H-.372A2.128,2.128,0,0,1-2.5,16.65V-.372A2.128,2.128,0,0,1-.372-2.5ZM14.522,1.755H1.755V14.522H14.522Z" transform="translate(2.5 2.5)"/>
          <path id="Layer-5" d="M-.372-2.5H16.65A2.128,2.128,0,0,1,18.777-.372V16.65a2.128,2.128,0,0,1-2.128,2.128H-.372A2.128,2.128,0,0,1-2.5,16.65V-.372A2.128,2.128,0,0,1-.372-2.5ZM14.522,1.755H1.755V14.522H14.522Z" transform="translate(70.587 19.522)"/>
          <path id="Layer-6" d="M-.372-2.5H16.65A2.128,2.128,0,0,1,18.777-.372V16.65a2.128,2.128,0,0,1-2.128,2.128H-.372A2.128,2.128,0,0,1-2.5,16.65V-.372A2.128,2.128,0,0,1-.372-2.5ZM14.522,1.755H1.755V14.522H14.522Z" transform="translate(2.5 19.522)"/>
          <path id="Layer-7" d="M-.372-2.5H16.65A2.128,2.128,0,0,1,18.777-.372V16.65a2.128,2.128,0,0,1-2.128,2.128H-.372A2.128,2.128,0,0,1-2.5,16.65V-.372A2.128,2.128,0,0,1-.372-2.5ZM14.522,1.755H1.755V14.522H14.522Z" transform="translate(70.587 36.544)"/>
          <path id="Layer-8" d="M-.372-2.5H16.65A2.128,2.128,0,0,1,18.777-.372V16.65a2.128,2.128,0,0,1-2.128,2.128H-.372A2.128,2.128,0,0,1-2.5,16.65V-.372A2.128,2.128,0,0,1-.372-2.5ZM14.522,1.755H1.755V14.522H14.522Z" transform="translate(2.5 36.544)"/>
          <path id="Layer-9" d="M-.372-2.5H16.65A2.128,2.128,0,0,1,18.777-.372V16.65a2.128,2.128,0,0,1-2.128,2.128H-.372A2.128,2.128,0,0,1-2.5,16.65V-.372A2.128,2.128,0,0,1-.372-2.5ZM14.522,1.755H1.755V14.522H14.522Z" transform="translate(70.587 53.565)"/>
          <path id="Layer-10" d="M-.372-2.5H16.65A2.128,2.128,0,0,1,18.777-.372V16.65a2.128,2.128,0,0,1-2.128,2.128H-.372A2.128,2.128,0,0,1-2.5,16.65V-.372A2.128,2.128,0,0,1-.372-2.5ZM14.522,1.755H1.755V14.522H14.522Z" transform="translate(2.5 53.565)"/>
        </g>
      </g>
    </g>
  </g>
</svg>
