<?xml version="1.0" standalone="no"?>
<!DOCTYPE svg PUBLIC "-//W3C//DTD SVG 20010904//EN"
 "http://www.w3.org/TR/2001/REC-SVG-20010904/DTD/svg10.dtd">
<svg version="1.0" xmlns="http://www.w3.org/2000/svg"
 width="500.000000pt" height="500.000000pt" viewBox="0 0 500.000000 500.000000"
 preserveAspectRatio="xMidYMid meet">
<metadata>
Created by potrace 1.14, written by Peter Selinger 2001-2017
</metadata>
<g transform="translate(0.000000,500.000000) scale(0.100000,-0.100000)"
fill="#000000" stroke="none">
<path d="M3055 4253 c-11 -3 -31 -13 -45 -23 -14 -10 -384 -330 -823 -712
l-798 -694 -442 -68 c-243 -38 -456 -75 -472 -82 -42 -19 -65 -62 -65 -119 0
-40 5 -52 34 -81 28 -28 42 -34 75 -34 36 0 372 48 466 66 28 5 25 1 -35 -56
-36 -34 -206 -184 -378 -334 -343 -297 -345 -300 -323 -383 18 -66 84 -102
152 -83 23 7 198 152 568 473 l534 464 531 82 c292 45 539 85 549 88 16 4 17
0 12 -34 -4 -21 -54 -221 -111 -444 -57 -223 -104 -417 -104 -431 0 -79 64
-135 143 -125 84 11 82 6 226 566 72 277 132 505 134 508 3 2 47 11 98 20 52
8 106 22 121 29 67 34 77 140 19 198 -29 29 -36 31 -101 31 -57 0 -69 3 -65
15 43 152 255 1021 255 1046 0 86 -70 138 -155 117z m-211 -555 c-8 -35 -49
-200 -92 -368 l-77 -305 -330 -52 c-364 -57 -476 -71 -460 -55 17 16 968 842
971 842 1 0 -4 -28 -12 -62z"/>
<path d="M3525 3024 c17 -41 16 -63 -9 -161 -14 -56 -26 -108 -26 -117 0 -8
38 23 85 70 75 75 84 88 79 112 -13 57 -50 94 -108 108 -26 6 -28 5 -21 -12z"/>
<path d="M4456 3002 c71 -45 153 -173 173 -270 24 -115 8 -283 -39 -408 -114
-305 -355 -536 -611 -584 -115 -22 -261 -5 -337 41 -51 30 -50 23 3 -31 110
-112 199 -145 369 -137 78 3 129 11 171 26 323 116 588 512 589 881 0 159 -42
277 -135 375 -47 50 -133 104 -189 120 -22 6 -22 4 6 -13z"/>
<path d="M4032 2834 c-69 -18 -103 -36 -189 -101 -100 -75 -208 -193 -292
-319 -39 -59 -71 -111 -71 -115 0 -5 13 -6 28 -3 24 5 67 -8 113 -33 4 -2 17
13 30 34 51 85 162 223 234 292 144 136 242 183 388 185 l79 1 -33 27 c-56 47
-181 61 -287 32z"/>
<path d="M3651 2163 c10 -62 17 -81 46 -121 20 -26 69 -62 86 -62 6 0 -14 103
-30 147 -14 42 -42 67 -86 78 -24 6 -24 6 -16 -42z"/>
<path d="M3366 2083 c-94 -189 -109 -236 -252 -806 -41 -164 -80 -306 -86
-316 -16 -26 -61 -51 -91 -51 -30 0 -39 -27 -26 -72 19 -68 90 -109 154 -88
71 23 74 33 194 521 87 353 122 477 159 568 l49 117 -18 41 c-9 22 -22 66 -29
97 -6 31 -13 56 -16 56 -2 0 -19 -30 -38 -67z"/>
</g>
</svg>
